<svg xmlns="http://www.w3.org/2000/svg" xmlns:svg="http://www.w3.org/2000/svg" id="Layer_3" width="954.46" height="1448.559" x="0" y="0" version="1.1" viewBox="0 0 954.46 1448.559" xml:space="preserve"><metadata id="metadata605"/><style id="style326" type="text/css">.st0,.st1{fill:#0d526d;stroke:#000;stroke-miterlimit:10}.st1{fill:#6acffb}.st2{fill:url(#SVGID_1_)}.st3{fill:#54aecf;stroke:#000;stroke-miterlimit:10}.st4{fill:#fff}.st5{fill:#d1b482;stroke:#000;stroke-miterlimit:10}.st6{fill:#ffebe6}.st7{fill:url(#SVGID_2_)}.st8{fill:url(#SVGID_3_)}.st9{fill:url(#SVGID_4_)}.st10{fill:#1a83b7;stroke:#000;stroke-miterlimit:10}.st11{fill:url(#SVGID_5_)}.st12{fill:url(#SVGID_6_)}.st13{fill:url(#SVGID_7_)}.st14{fill:url(#SVGID_8_)}.st15{fill:#916243;stroke:#000;stroke-miterlimit:10}.st16{fill:#7a4f37}.st17{fill:none;stroke:#000;stroke-miterlimit:10}.st18{fill:url(#SVGID_9_)}.st19{fill:url(#SVGID_10_)}.st20{fill:url(#SVGID_11_)}.st21{fill:url(#SVGID_12_);stroke:#000;stroke-miterlimit:10}.st22{fill:url(#SVGID_13_)}.st23{fill:url(#SVGID_14_)}.st24{fill:url(#SVGID_15_)}.st25{fill:url(#SVGID_16_);stroke:#000;stroke-miterlimit:10}.st26{fill:url(#SVGID_17_)}.st27{fill:url(#SVGID_18_)}.st28{fill:url(#SVGID_19_)}.st29{stroke:#000;stroke-miterlimit:10}.st30{fill:#d1b482}.st31{fill:url(#SVGID_20_)}.st32,.st33{fill:none;stroke:#000;stroke-linecap:round;stroke-linejoin:round;stroke-miterlimit:10}.st33{fill:#d1b482}.st34{fill:url(#SVGID_21_)}.st35{fill:url(#SVGID_22_)}</style><g id="g598" transform="translate(-147.76978,-70.704736)"><path id="path328" d="m 430.6,655.5 c 0,0 -73.3,-2 -88,0 -14.7,2 -32.3,11 -25.4,27 6.9,16 92.8,15 124.1,20 31.3,5 156.4,52 201.3,56 45,4 192.5,-21 226.7,-42 34.2,-21 61.4,-44.7 51.8,-52 -26.4,-20 -155.4,10 -155.4,10 z" class="st0" style="fill:#0d526d;stroke:#000;stroke-miterlimit:10"/><g id="g332"><path id="path330" d="m 538.5,447.5 c 0,0 -117,96 -138,234 -21,138 9,349 9,349 l 439,12 c 0,0 38,-320 36,-389 -2,-69 -130,-211 -130,-211 -18,-8 -137,-28 -160,-21 -23,7 -56,26 -56,26 z" class="st1" style="fill:#6acffb;stroke:#000;stroke-miterlimit:10"/></g><linearGradient id="SVGID_1_" x1="502.844" x2="498.662" y1="722.806" y2="660.649" gradientUnits="userSpaceOnUse"><stop style="stop-color:#6acffb" id="stop334" offset=".287"/><stop style="stop-color:#54aecf" id="stop336" offset=".876"/></linearGradient><path id="path339" d="m 461.9,705.5 c 22.5,9.3 48.6,8.8 71,-0.7 24.5,-10.5 44.8,-33.4 46.9,-60 -30.5,21.7 -71.4,23.9 -107.9,15.8 -9.2,-2 -63.1,-17.3 -54.3,4 7.5,18.3 26.4,33.5 44.3,40.9 z" class="st2" style="fill:url(#SVGID_1_)"/><path id="path341" d="m 436.6,484.1 c -8,-3.2 -16.4,-5.4 -24.9,-6.6 -4.6,-0.7 -9.6,-0.9 -13.4,1.6 -4.9,3.2 -6.3,9.9 -4.8,15.6 1.4,5.6 5.1,10.4 8.7,14.9 5,6.4 10,12.8 15.1,19.2 2.1,2.7 4.5,5.6 7.9,6.4 3.5,0.8 7.1,-0.8 10.3,-2.4 5.6,-2.8 11.3,-5.7 16.9,-8.5 10.8,-5.4 23.2,-13.5 22.5,-25.6 -0.5,-8.4 -7.9,-15.2 -16,-17.7 -8.1,-2.5 -16.8,-1.6 -25.2,-0.7" class="st3" style="fill:#54aecf;stroke:#000;stroke-miterlimit:10"/><path id="path343" d="m 898.2,529.1 c 8,-3.2 16.4,-5.4 24.9,-6.6 4.6,-0.7 9.6,-0.9 13.4,1.6 4.9,3.2 6.3,9.9 4.8,15.6 -1.4,5.6 -5.1,10.4 -8.7,14.9 -5,6.4 -10,12.8 -15.1,19.2 -2.1,2.7 -4.5,5.6 -7.9,6.4 -3.5,0.8 -7.1,-0.8 -10.3,-2.4 -5.6,-2.8 -11.3,-5.7 -16.9,-8.5 -10.8,-5.4 -23.2,-13.5 -22.5,-25.6 0.5,-8.4 7.9,-15.2 16,-17.7 8.1,-2.5 16.8,-1.6 25.2,-0.7" class="st3" style="fill:#54aecf;stroke:#000;stroke-miterlimit:10"/><g id="g349"><path id="path345" d="m 645.5,720.3 c -9.3,0 -16.8,-6.1 -19.5,-16 -2.7,-9.9 2.1,-27.6 2.9,-30.4 h 47.2 c 0.5,3.9 3.6,31.8 -0.9,37.2 -4.5,5.4 -12.1,6.6 -22.8,8.3 -1,0.2 -1.9,0.3 -2.9,0.5 -1.4,0.3 -2.7,0.4 -4,0.4 0,0 0,0 0,0 z" class="st4" style="fill:#fff"/><path id="path347" d="m 675.6,674.5 c 1.1,9.4 2.9,31.9 -0.9,36.4 -4.3,5.2 -11.9,6.5 -22.5,8.2 -1,0.2 -1.9,0.3 -2.9,0.5 -1.3,0.2 -2.6,0.3 -3.8,0.3 -9.1,0 -16.4,-6 -19,-15.6 -2.6,-9.4 1.8,-26.1 2.8,-29.7 h 46.3 m 0.9,-1.1 h -48 c 0,0 -6,20 -3,31 2.7,9.7 10,16.3 20,16.3 1.3,0 2.6,-0.1 4,-0.3 12,-2 21,-3 26,-9 5,-6 1,-38 1,-38 z"/></g><path id="path351" d="M 510.5,410.9" class="st5" style="fill:#d1b482;stroke:#000;stroke-miterlimit:10"/><path id="path353" d="M 808,458.6" class="st5" style="fill:#d1b482;stroke:#000;stroke-miterlimit:10"/><g id="g357"><path id="path355" d="m 657.9,658.5 c 0,0 -73.3,1 -44,34.2 9.8,11.1 20.7,-1 34.5,0 13.8,1 19.8,13.1 30.2,11.1 10.4,-2 16.4,-21.1 9.5,-30.2 -6.9,-9.1 -30.2,-15.1 -30.2,-15.1 z" class="st6" style="fill:#ffebe6"/></g><g id="g361"><path id="path359" d="m 516.5,1098.4 c 0,0 -45,29.1 -40.1,39.9 2.6,5.8 11.4,13.8 30.4,7.4 32.6,-11 36.3,-26 44.5,-38.9 5.3,-8.4 -7.7,-24.9 -7.7,-24.9 z" class="st1" style="fill:#6acffb;stroke:#000;stroke-miterlimit:10"/></g><g id="g365"><path id="path363" d="m 787.5,1108.5 c 0,0 50,24 40,40 -10,16 -47,13 -59,0 -9.7,-10.5 -26,-37 -26,-37 z" class="st1" style="fill:#6acffb;stroke:#000;stroke-miterlimit:10"/></g><linearGradient id="SVGID_2_" x1="801.359" x2="774.474" y1="1163.476" y2="1102.839" gradientUnits="userSpaceOnUse"><stop style="stop-color:#6acffb" id="stop367" offset=".287"/><stop style="stop-color:#54aecf" id="stop369" offset=".876"/></linearGradient><path id="path372" d="m 811.6,1128.5 c -5.2,0.7 -10.4,1.4 -15.6,2 -5.9,0.8 -11.9,1.6 -17.2,4.4 -5.2,2.8 -9.6,8.1 -9.5,14 -7.8,-8.5 -10.8,-16 -17.3,-23.1 17.1,-3.4 34.7,-4.1 52,-2.3 5.5,0.6 10.5,1.8 14.8,5.4 -2.3,-0.9 -4.8,-0.7 -7.2,-0.4 z" class="st7" style="fill:url(#SVGID_2_)"/><linearGradient id="SVGID_3_" x1="493.495" x2="527.774" y1="1149.181" y2="1102.307" gradientUnits="userSpaceOnUse"><stop style="stop-color:#6acffb" id="stop374" offset=".287"/><stop style="stop-color:#54aecf" id="stop376" offset=".876"/></linearGradient><path id="path379" d="m 495.7,1123.1 c 5.7,0.5 12.1,1.9 15,6.8 2.4,4.2 1.3,9.6 -1,13.9 14.4,-3.3 26.4,-12.5 34.2,-25.1 -18.7,0.4 -36.4,0.8 -55.1,1.3 -2,0 -4.4,1 -2.1,2.7 1.4,1 7.1,0.2 9,0.4 z" class="st8" style="fill:url(#SVGID_3_)"/><linearGradient id="SVGID_4_" x1="673.763" x2="860.012" y1="685.911" y2="685.911" gradientUnits="userSpaceOnUse"><stop style="stop-color:#6acffb" id="stop381" offset=".287"/><stop style="stop-color:#54aecf" id="stop383" offset=".876"/></linearGradient><path id="path386" d="m 699,759 c -16,11 128.5,-5.2 129.5,-4.5 0.8,0.6 1.9,0.5 2.8,0.4 10.8,-1 21.6,-2.1 32.5,-3.1 3.2,-0.3 6.5,-0.7 9.1,-2.5 2.8,-1.9 7.4,-44.4 10.1,-46.3 0.4,-0.3 0,-29 0,-29 -1.4,-4.5 3,-5.8 -0.2,-9.2 -5.8,-6 -14.3,-8.3 -22.4,-10.4 -34.8,-9.3 -68.7,-22.1 -100.9,-38.2 -5.7,-2.8 -11.5,-5.8 -17.8,-6.9 -26.2,-4.6 -12.9,41.4 -6.7,54.7 8.3,18 -10.4,77.4 -36,95 z" class="st9" style="fill:url(#SVGID_4_)"/><g id="g390"><path id="path388" d="m 362,741.9 c 2.7,3.2 5.2,0.9 -2.7,17.2 -7.9,16.3 13.8,111 0.6,164.9 -3.2,13.1 -7.4,26.5 -16.1,36.7 -5.8,6.8 -13.5,12.1 -18.2,19.7 -4.6,7.4 -6.1,16.4 -10.3,24.1 -4.8,8.8 -12.9,15.3 -20.9,21.3 -34.1,25.6 -110.7,57 -109.5,65.3 21.8,26.3 84.4,12.2 126.6,18.3 31.7,4.6 63.3,9.1 95.3,11 87.6,5.2 175.5,-10 262.9,-3.2 43.2,3.4 86.3,12.1 129.6,9.9 36.3,-1.9 71.8,-11.4 106.9,-20.9 39.3,-10.6 78.6,-21.2 117.8,-31.8 7,-1.9 15.4,-5.3 16.2,-12.7 0.8,-7.6 -7.2,-12.8 -14.2,-15.3 -20.6,-7.5 -43.2,-9.1 -62.7,-19.2 -6.1,-3.2 -12.7,-8.9 -11.5,-15.8 0.6,-3.6 3.2,-6.5 4.6,-9.8 4.6,-10.9 -4.1,-22.5 -11.6,-31.6 -41.2,-49.9 -61.9,-117.1 -55.9,-182.2 1.3,-14 4,-28.6 12.6,-39.6 7.6,-27.1 21.7,-60.7 21.7,-81.7 -111.4,134.5 -350.2,41 -524.1,30 -81.1,-5.1 -83.1,-22 -83.1,-22 -12.3,19.4 35.3,54.8 46,67.4 z" class="st10" style="fill:#1a83b7;stroke:#000;stroke-miterlimit:10"/></g><g id="g401"><g id="g399"><linearGradient id="SVGID_5_" x1="598" x2="921.035" y1="894.749" y2="894.749" gradientUnits="userSpaceOnUse"><stop style="stop-color:#1a83b7" id="stop392" offset="0"/><stop style="stop-color:#0e5e77" id="stop394" offset=".852"/></linearGradient><path id="path397" d="m 1026.2,1046.4 c -20.6,-7.5 -43.2,-9.1 -62.7,-19.2 -6.1,-3.2 -12.7,-8.9 -11.5,-15.8 0.6,-3.6 3.2,-6.5 4.6,-9.8 4.6,-10.9 -4.1,-22.5 -11.6,-31.6 -41.2,-49.9 -61.9,-117.1 -55.9,-182.2 1.3,-14 4,-28.6 12.6,-39.6 7.3,-25.8 20.3,-57.3 21.6,-78.4 -4.2,3.7 -8.4,7.3 -12.8,10.8 -29,28.4 -65,44.3 -105.3,51.9 -16.3,4 -33,6.4 -49.7,8.3 -10.5,1.2 -22.4,3.2 -32.5,4.2 -10.2,1 -21,4 -17.9,10.1 5.1,2.6 10.1,5.2 15.2,7.8 1.5,0.7 3,1.6 3.6,3.2 1.2,3.5 -3.4,5.9 -7,6.7 -37.2,7.7 -75.2,11.8 -113.3,12.1 1.9,8.5 12.3,11.6 20.9,13.1 25.2,4.4 50.4,8.9 75.7,13.3 5.2,0.9 11.8,3.6 11.2,8.8 -0.3,2.4 -2.2,4.3 -3.9,5.9 -13.6,12.3 -29.1,22.4 -45.9,29.9 8.8,7.4 9.3,20.4 10.3,31.8 3,31.6 15.6,62.3 35.8,86.8 1.8,2.2 3.8,4.5 4.5,7.3 1.1,4.6 -1.4,9.2 -3.6,13.5 -3.6,6.9 -6.6,14.2 -8.8,21.6 -0.7,2.5 -1.4,5.1 -0.7,7.5 1.6,5.4 8.6,7 14.1,6 5.5,-1 10.9,-3.6 16.4,-3 3.1,7.3 -2.4,15.2 -7.8,21 -9,9.5 -19,18.2 -26.4,29 -7.4,10.8 -16.6,27.9 -13.3,40.6 0.9,0.2 1.8,0.4 2.7,0.7 24.7,2.5 49.4,6.2 74.1,7.9 3.8,0.2 7.6,0.3 11.3,0.5 4.6,0.2 9.1,0.4 13.7,0.5 5.2,0 10.4,-0.1 15.7,-0.4 36.3,-1.9 71.8,-11.4 106.9,-20.9 39.3,-10.6 78.6,-21.2 117.8,-31.8 7,-1.9 15.4,-5.3 16.2,-12.7 0.6,-7.6 -7.3,-12.8 -14.3,-15.4 z" class="st11" style="fill:url(#SVGID_5_)"/></g></g><linearGradient id="SVGID_6_" x1="609.714" x2="669.975" y1="988.887" y2="898.996" gradientUnits="userSpaceOnUse"><stop style="stop-color:#1a83b7;stop-opacity:0" id="stop403" offset="0"/><stop style="stop-color:#0e5e77" id="stop405" offset=".625"/></linearGradient><path id="path408" d="m 639.6,939.4 c -10.6,-9.1 -19.2,-20.2 -28.7,-30.5 -5.2,-5.7 -11,-11.3 -18.3,-13.9 -7.3,-2.6 -16.5,-1.2 -21,5 -0.5,0.7 -1,1.6 -1,2.5 -0.1,1.4 0.9,2.6 1.8,3.7 16.4,19.2 32.7,38.4 49.1,57.6 3.3,3.9 6.6,7.7 10.3,11.2 4.3,3.9 9.1,7.2 13.4,11.1 6.8,6.2 12.2,14 16.2,22.3 5.1,10.6 8.1,22.2 8.7,34 3.3,-0.8 4.4,-5 4.7,-8.4 2.2,-21.9 5.2,-45.5 3.4,-67.5 -1.1,-13 -4.4,-9.1 -16.1,-13.3 -8.3,-3 -15.9,-8.1 -22.5,-13.8 z" class="st12" style="fill:url(#SVGID_6_)"/><linearGradient id="SVGID_7_" x1="425.412" x2="536.707" y1="815.015" y2="733.613" gradientUnits="userSpaceOnUse"><stop style="stop-color:#1a83b7;stop-opacity:0" id="stop410" offset="0"/><stop style="stop-color:#0e5e77" id="stop412" offset=".625"/></linearGradient><path id="path415" d="m 419.4,741.2 c 14.3,27.4 34.9,50.9 56.8,72.7 9.3,9.3 34.8,40.1 35.8,43.1 8.4,3.6 -1.2,-2.5 7.2,1 3.9,1.7 8,3.3 12.2,3 4.2,-0.4 8.6,-3.5 8.7,-7.7 0.1,-3.7 -2.8,-6.7 -5.4,-9.3 -31.9,-30.8 -61.3,-64.2 -87.6,-99.9 -8.9,-12.1 -20.9,-31.6 -35.9,-36.9 -10.9,-3.8 -10.4,-0.6 -6.2,7.6 4.4,8.9 9.8,17.5 14.4,26.4 z" class="st13" style="fill:url(#SVGID_7_)"/><linearGradient id="SVGID_8_" x1="455.091" x2="440.275" y1="1016.181" y2="1193.276" gradientUnits="userSpaceOnUse"><stop style="stop-color:#1a83b7;stop-opacity:0" id="stop417" offset="0"/><stop style="stop-color:#0e5e77" id="stop419" offset=".625"/></linearGradient><path id="path422" d="m 709,1103 c -17.3,1.2 -87,-1.9 -93.6,-1.3 -17.8,1.6 -35.1,-4.7 -52.3,-10 1.8,-3.3 0.5,-7.8 -2.3,-10.5 -2.9,-2.8 -6.9,-4.1 -10.9,-5.1 -14.1,-3.5 -28.7,-4.3 -42.6,-8.7 -6.6,-2.1 -13,-5 -19.3,-7.9 -19.2,-8.7 -38.6,-17.5 -55.9,-29.6 -4.1,-2.9 -8.1,-5.9 -12.3,-8.6 -2.5,6.3 1.2,13.1 4.7,18.8 4.4,7.1 8.7,14.2 13.1,21.3 1.1,1.7 2.1,3.6 1.9,5.6 0,0.4 1.1,1 3.3,1.8 -0.1,0 -0.2,0 -0.2,0 -6.1,-1 -12.2,-1.9 -18.4,-2 -6.8,-0.1 -13.6,0.9 -20.4,1.3 -14.5,0.8 -28,-2.1 -42.2,-3.4 -15.9,-1.5 -30.3,4.7 -45.6,7.9 -22.7,4.7 -46.6,-0.1 -69.1,5.7 4.3,1.1 5,7.6 2,10.9 -3,3.3 -7.7,4.2 -12.1,4.7 -16.7,1.9 -33.7,1.5 -50.2,-1.3 24.3,18.8 58.2,16.5 88.9,14.5 26.5,-1.7 45.5,3 71.6,7.9 11.1,2.1 34.9,3.3 46,5 10.8,1.7 21.1,0.6 32,1 22.6,0.9 40.7,-0.3 63.3,-1.3 19.2,-0.9 45.4,-0.8 64.7,-1.7 21.1,-1 35.3,-2.9 56.5,-2.3 30.3,0.8 58.5,-0.7 88.5,3.3 9.9,3 13.4,-16.2 10.9,-16 z" class="st14" style="fill:url(#SVGID_8_)"/><path id="path424" d="m 167.3,514.3 c -4.8,27.7 4.2,58.7 26.4,75.9 24.4,18.8 57.9,18.2 88.2,24.1 30.3,5.9 63.8,26.6 62.1,57.4 -0.2,4.1 -1.1,8.4 0.6,12.2 2.8,6.4 11,7.9 17.8,9.9 20.7,6.1 35.3,23.9 49.2,40.3 25.1,29.4 52.2,57 79.7,84.1 66.1,65.1 134.5,127.7 205.1,187.8 22,18.7 44.3,37.2 66.5,55.7 47.1,39.1 94.1,78.3 141.2,117.4 0.8,-12.5 -8.1,-23.2 -16.7,-32.3 C 832.3,1088.1 768.2,1038.7 707.9,985.3 638.5,923.7 574.1,856.5 513.7,786.2 c -36.9,-43 -72.9,-87.6 -117.9,-122 -16,-12.2 -27.7,-48.8 -41.4,-63.6 -11.5,-12.4 -25.6,-1.4 -34.2,-15.9 -5.7,-9.6 -11,-22.9 -3,-30.7 5.3,-5.2 14.8,-5.4 18.7,-11.8 3.3,-5.6 0.4,-12.7 -2.5,-18.5 -7.4,-14.5 -14.7,-29 -22.1,-43.5 -7.1,-14.1 -14.6,-28.5 -26.7,-38.6 -51.5,-43.1 -108.9,24 -117.3,72.7 z" class="st15" style="fill:#916243;stroke:#000;stroke-miterlimit:10"/><path id="path426" d="m 696.4,1005.9 c 22,18.7 44.3,37.2 66.5,55.7 47.1,39.1 94.1,78.3 141.2,117.4 0.8,-12.5 -8.1,-23.2 -16.7,-32.3 -55.1,-58.7 -119.2,-108.1 -179.5,-161.5 -69.3,-61.6 -82.1,-39.4 -11.5,20.7 z" class="st16" style="fill:#7a4f37"/><path id="path428" d="m 613,895 c -0.9,0 -1,4.6 -1.6,5.3 -3.3,3.7 -7.2,7 -11.7,9 -2,0.9 -5.7,4.6 -7.7,3.7 -1.4,-0.7 -7.6,-6.5 -10.5,-10.7 -0.5,-0.7 -0.9,-1.5 -0.8,-2.3 0.1,-0.8 0.9,-1.4 1.5,-1.9 4.6,-3.2 16.2,-11.2 21.7,-12.2 0.1,0.1 9.3,9.1 9.1,9.1 z" class="st16" style="fill:#7a4f37"/><path id="path430" d="m 653.9,969.1 c 6.1,3.9 11.5,8.8 16.1,14.4 0,-6.2 -0.1,-12.5 -0.1,-18.7 -5,2.6 -10.7,3.8 -16.3,3.5" class="st16" style="fill:#7a4f37"/><path id="path432" d="m 435.7,790.6 c 0.8,16.6 6.2,33 15.5,46.8" class="st17" style="fill:none;stroke:#000;stroke-miterlimit:10"/><path id="path434" d="m 649.5,686 c 0.7,7.5 1.4,15.1 2,22.6" class="st17" style="fill:none;stroke:#000;stroke-miterlimit:10"/><g id="g445"><g id="g443"><linearGradient id="SVGID_9_" x1="613.38" x2="697.841" y1="675.24" y2="699.474" gradientUnits="userSpaceOnUse"><stop style="stop-color:#ffebe6" id="stop436" offset=".287"/><stop style="stop-color:#e5d2cf" id="stop438" offset=".876"/></linearGradient><path id="path441" d="m 673.4,663.9 c -0.5,0.1 -1,0.1 -1.5,0.2 -2,0.4 -4.2,1.1 -5.5,2.7 -3,3.7 -0.1,9.5 -2.2,13.8 -1.8,3.6 -6.3,4.6 -10.3,4.6 -7.7,-0.1 -15.7,-2.8 -22.9,-0.1 -2.3,0.9 -4.4,2.3 -6.6,3.3 -4.3,2 -8.6,2.3 -12.7,1.6 0.7,0.9 1.4,1.8 2.3,2.8 9.8,11.1 20.7,-1 34.5,0 13.8,1 19.8,13.1 30.2,11.1 10.3,-2 16.4,-21.1 9.5,-30.2 -3.1,-4 -9,-7.3 -14.8,-9.8 z" class="st18" style="fill:url(#SVGID_9_)"/></g></g><g id="g451"><g id="g449"><path id="path447" d="m 657.8,659.5 c 1.9,0.5 23.1,6.4 29.5,14.7 3.2,4.3 3.7,11.4 1.1,18.3 -2.2,5.7 -5.9,9.5 -9.9,10.3 -0.7,0.1 -1.4,0.2 -2.1,0.2 -4,0 -7.4,-2.2 -11.3,-4.7 -4.5,-2.9 -9.5,-6.1 -16.5,-6.6 -0.6,0 -1.2,-0.1 -1.7,-0.1 -4.8,0 -9.1,1.3 -13.2,2.6 -3.5,1.1 -6.8,2.1 -9.9,2.1 -3.5,0 -6.4,-1.4 -9,-4.4 -6,-6.8 -7.9,-12.6 -5.9,-17.2 6.2,-14 46.2,-15.1 48.9,-15.2 m 0.1,-1 c 0,0 -73.3,1 -44,34.2 3.1,3.5 6.3,4.7 9.7,4.7 6.8,0 14.4,-4.8 23.1,-4.8 0.6,0 1.1,0 1.7,0.1 12.7,0.9 18.9,11.3 27.9,11.3 0.7,0 1.5,-0.1 2.3,-0.2 10.3,-2 16.4,-21.1 9.5,-30.2 -6.9,-9.1 -30.2,-15.1 -30.2,-15.1 z"/></g></g><g id="g455"><path id="path453" d="m 605.3,862.7 c 2,3.4 2.3,7.3 2.1,11.1 -0.5,9.2 -4,18.8 -12.8,24.7 -8.3,5.6 -19.7,7 -30.4,8.2 -3.7,0.4 -8.1,0.6 -10.4,-1.7 -1.6,-1.6 -1.5,-3.8 -1.4,-5.9 0.9,-12.5 1.7,-29.6 16.3,-37.1 9.4,-4.9 30.8,-9 36.6,0.7 z" class="st1" style="fill:#6acffb;stroke:#000;stroke-miterlimit:10"/></g><g id="g459"><path id="path457" d="m 638.4,929.9 c -3.2,1.4 -6.7,3.1 -7.7,6.4 -0.7,2.2 -0.2,4.5 0.4,6.7 2.6,10.4 6.9,22.6 17.3,25.2 4.8,1.2 9.8,-0.1 14.5,-1.3 10,-2.7 21.2,-6.2 25.8,-15.6 1.6,-3.2 2.1,-6.8 2.1,-10.4 -0.1,-37.6 -33.4,-19.3 -52.4,-11 z" class="st1" style="fill:#6acffb;stroke:#000;stroke-miterlimit:10"/></g><linearGradient id="SVGID_10_" x1="644.212" x2="666.164" y1="940.979" y2="967.287" gradientUnits="userSpaceOnUse"><stop style="stop-color:#6acffb" id="stop461" offset=".287"/><stop style="stop-color:#54aecf" id="stop463" offset=".876"/></linearGradient><path id="path466" d="m 652.4,950 c 5.2,-2 9.3,-6.4 11.7,-11.4 2.3,7.8 4.1,15.7 5.3,23.7 0.1,0.8 0.2,1.8 -0.3,2.4 -0.4,0.4 -1,0.6 -1.6,0.8 -5,1.2 -10.1,2 -15.2,2.2 -1.4,0.1 -2.9,0.1 -4.3,-0.3 -1.7,-0.4 -4.2,-1.4 -5.5,-2.5 -4.5,-3.9 -7.5,-12.9 -7.3,-13 1.4,-1.1 6.6,-0.4 8.2,-0.4 3,-0.2 6.1,-0.4 9,-1.5 z" class="st19" style="fill:url(#SVGID_10_)"/><linearGradient id="SVGID_11_" x1="591.128" x2="594.766" y1="871.067" y2="898.653" gradientUnits="userSpaceOnUse"><stop style="stop-color:#6acffb" id="stop468" offset=".287"/><stop style="stop-color:#54aecf" id="stop470" offset=".876"/></linearGradient><path id="path473" d="m 604.9,863.7 c 1.8,0.9 1.9,3.4 1.8,5.4 -0.1,2.6 -0.3,5.1 -0.4,7.7 -0.1,2.3 -1.3,4.7 -1.9,7 -1.4,5.6 -4.4,10.2 -9.2,13.5 -4.8,3.3 -10.2,5.2 -15.7,6.9 0,-3 -0.1,-6 -0.1,-8.9 0,-1.8 -0.9,-6.3 -0.1,-7.9 1.2,-2.2 8.2,-3.3 10.7,-4.8 3.6,-2.1 6.8,-4.9 9.4,-8.1 0.6,-0.9 6.6,-10.2 5.5,-10.8 z" class="st20" style="fill:url(#SVGID_11_)"/><path id="path475" d="m 399.4,803.5 c 2.2,11.5 14.4,17.9 25.2,22.5 46.4,19.9 99.8,38.4 146,18 8.4,4.4 9.4,15.8 9.2,25.3 -0.9,59.5 -1.7,119.1 -2.6,178.6 -0.2,15.2 -0.5,30.6 -5,45 -12,2 -27.3,-5.6 -37.9,-11.6 -18.8,-10.7 -98.8,-38.9 -113.8,-59.9" class="st10" style="fill:#1a83b7;stroke:#000;stroke-miterlimit:10"/><linearGradient id="SVGID_12_" x1="673.902" x2="853.5" y1="963.37" y2="963.37" gradientUnits="userSpaceOnUse"><stop style="stop-color:#1a83b7" id="stop477" offset="0"/><stop style="stop-color:#0e5e77" id="stop479" offset="1"/></linearGradient><path id="path482" d="m 824.4,818 c -39.5,43.5 -92.6,74.6 -149.8,87.9 -5.2,1.2 -11,2.7 -13.5,7.4 -2.5,4.7 -0.5,10.4 1.2,15.4 18.5,54.5 -2.5,114.7 6.2,171.5 0.4,2.9 1.2,6.3 3.8,7.7 1.9,1.1 4.4,0.8 6.6,0.5 36.2,-5.2 80.8,-16.1 106.7,-42 12,-12 49.2,-43 54,-56" class="st21" style="fill:url(#SVGID_12_);stroke:#000;stroke-miterlimit:10"/><path id="path484" d="m 785.5,853.5 c 6.9,-9 9.3,-21.5 8,-32.8" class="st17" style="fill:none;stroke:#000;stroke-miterlimit:10"/><linearGradient id="SVGID_13_" x1="743.456" x2="942.249" y1="942.679" y2="942.679" gradientUnits="userSpaceOnUse"><stop style="stop-color:#1a83b7" id="stop486" offset="0"/><stop style="stop-color:#0e5e77;stop-opacity:0" id="stop488" offset=".626"/></linearGradient><path id="path491" d="m 693.1,915.8 c -3.4,0.7 -7.1,1.5 -9.5,3.9 -3.3,3.4 -3.2,8.8 -2.9,13.6 1.1,15.7 2.3,31.4 3.5,47.1 2.8,-2.7 5.6,-5.5 8.3,-8.2 -1.6,11.8 -3.2,23.5 -4.8,35.3 -1.5,11.4 -2.1,25.3 7.3,31.9 6.6,4.7 16,3.5 23,-0.6 7,-4.1 12.1,-10.7 17,-17.2 9,-11.8 18,-23.6 27,-35.5 2.6,22.6 -12.2,43.8 -29.5,58.7 -13.5,11.7 -29.1,21.3 -39.5,35.9 -2.6,3.6 -4.9,7.7 -8.7,10 -3.8,2.4 -9.6,2.3 -11.9,-1.5 -0.9,-1.5 -1.1,-3.2 -1.3,-4.9 -2.5,-20.8 -2.8,-41.9 -1,-62.8 1.3,-15.5 3.8,-31.1 2.4,-46.6 -1.7,-18.4 -8.8,-36.1 -10,-54.6 -0.1,-2.2 -0.2,-4.6 1,-6.5 1.2,-1.9 3.4,-3 5.5,-3.8 22,-8.1 43,-14 63.9,-23 43.7,-18.8 82,-50.7 109.6,-89.4 -0.7,4.1 -1.4,8.3 -2.1,12.4 7.9,-4.5 14.9,-10.3 20.9,-17.1 -4.1,4.8 -4.4,15.3 -9.2,21.1 -5.9,7.3 -13.2,9.6 -20.7,14.5 -13,8.4 -23.8,21.7 -35.9,31.6 -30.2,24.8 -63.7,47.4 -102.4,55.7 z" class="st22" style="fill:url(#SVGID_13_)"/><linearGradient id="SVGID_14_" x1="251.473" x2="403.331" y1="1022.985" y2="1022.985" gradientUnits="userSpaceOnUse"><stop style="stop-color:#0e5e77" id="stop493" offset=".237"/><stop style="stop-color:#1a83b7;stop-opacity:0" id="stop495" offset="1"/></linearGradient><path id="path498" d="m 320.9,1009 c 2.6,8.2 10.6,13.7 18.9,15.7 8.3,2 17.1,1.1 25.6,0.2 -4.1,3.2 -8.1,6.4 -12.2,9.7 7.7,7.7 19.2,9.9 30,10.8 10.8,0.9 22.1,1.1 31.8,5.9 -18,3.7 -36.8,3.6 -54.8,-0.4 -9.6,-2.1 -19.1,-5.4 -28.9,-5.1 -6.2,0.2 -12.2,1.9 -18.3,2.9 -19.7,3.4 -40.1,0.5 -59.6,4.8 6,-8.5 21.5,-13.5 34.5,-22.5 18.2,-12.6 29,-21 32.3,-39 2,5 -1.1,11.3 0.7,17 z" class="st23" style="fill:url(#SVGID_14_)"/><linearGradient id="SVGID_15_" x1="274.213" x2="278.36" y1="603.054" y2="548.913" gradientUnits="userSpaceOnUse"><stop style="stop-color:#916243" id="stop500" offset=".287"/><stop style="stop-color:#7a4f37" id="stop502" offset=".876"/></linearGradient><path id="path505" d="m 227.9,536.5 c 1.5,15 10.4,29.2 23.2,37.1 2.2,1.4 4.5,2.5 7,3.1 2.5,0.5 5.2,0.3 7.7,0.2 15,-1.1 31.8,-1.6 43,8.4 2.6,2.3 4.8,5.2 7.8,7 3,1.8 7.2,2.4 9.8,0.1 -6,-6.1 -11.9,-13 -13.6,-21.4 -1.7,-8.4 1.9,-18.5 10.1,-21.3 -8.9,3.1 -17.8,6.2 -26.7,9.3 -11,3.8 -22.4,7.7 -34.1,7.4 -11.7,-0.4 -23.9,-6 -28.9,-16.5 -2,-4.4 -3.7,-9.1 -5.3,-13.4 z" class="st24" style="fill:url(#SVGID_15_)"/><path id="path507" d="m 334.5,544.5 c -11.5,7.4 -38.8,15.5 -52,19 -8.7,2.3 -17.9,3.7 -26.8,2.2 -8.9,-1.5 -17.5,-6.2 -22.3,-13.8 -3.3,-5.3 -4.5,-11.6 -5.6,-17.7 -2.4,-12.7 -4.8,-25.4 -7.2,-38.1 -0.3,-1.4 -0.5,-2.9 0.1,-4.1 0.5,-1 1.5,-1.6 2.4,-2.2 10.8,-6.8 23.1,-14 35.6,-11.2 9.6,2.1 16.9,9.6 23.6,16.7 3.8,4 7.5,8 11.3,12 2.4,2.5 5,5.7 4.3,9.1 -0.4,2 -1.8,3.6 -3.3,4.9 -5,4.3 -11.9,6.7 -18.4,5.3 C 269.7,525.3 264,520 263,513.4" class="st17" style="fill:none;stroke:#000;stroke-miterlimit:10"/><radialGradient id="SVGID_16_" cx="644" cy="654" r="22.463" gradientTransform="matrix(1,0,0,0.6232,0,246.3962)" gradientUnits="userSpaceOnUse"><stop style="stop-color:#666" id="stop509" offset="0"/><stop style="stop-color:#000" id="stop511" offset="1"/></radialGradient><path id="path514" d="m 682.3,662.1 c -1.1,8.2 -14.4,13.3 -29.7,11.3 -15.3,-2 -26.9,-10.3 -25.8,-18.5 1.1,-8.2 14.4,-13.3 29.7,-11.3 15.3,2 26.8,10.3 25.8,18.5 z" class="st25" style="fill:url(#SVGID_16_);stroke:#000;stroke-miterlimit:10"/><linearGradient id="SVGID_17_" x1="661.832" x2="662.598" y1="633.692" y2="468.183" gradientUnits="userSpaceOnUse"><stop style="stop-color:#6acffb" id="stop516" offset=".287"/><stop style="stop-color:#54aecf" id="stop518" offset=".876"/></linearGradient><path id="path521" d="m 752.8,569.7 c -2.3,-3.4 -4.8,-6.9 -7.7,-9.8 19.2,0.9 38.5,1.4 57.7,1.3 12.2,0 24.7,-0.2 36.3,3.8 0.3,-7.7 -3.8,-15.1 -9.4,-20.4 -5.6,-5.3 -12.7,-8.8 -19.8,-11.9 -20.4,-8.9 -41.9,-15.1 -63.5,-20.3 -82,-20 -167.7,-27.8 -251.1,-14.9 -1.7,0.3 -3.5,0.6 -4.9,1.7 -4,3.1 -6.4,10 -4.3,13.1 2.7,4.1 13.2,7.5 17.7,9.6 12.4,5.9 25.3,10.5 38.5,14.1 26.5,7.3 53.9,10.9 81.2,13.9 21.7,2.4 43.4,4.6 65.1,6.4 0,0 0,0 0,0 3.8,3.5 4.4,9.2 4.6,14.4 1.4,24.9 2.4,51 14.4,72.9 10.1,18 70.9,-35.9 45.2,-73.9 z" class="st26" style="fill:url(#SVGID_17_)"/><g id="g536"><radialGradient id="SVGID_18_" cx="498.5" cy="596.5" r="103.011" gradientUnits="userSpaceOnUse"><stop style="stop-color:#fff" id="stop523" offset="0"/><stop style="stop-color:#fdfdfd" id="stop525" offset=".446"/><stop style="stop-color:#e6e6e6" id="stop527" offset="1"/></radialGradient><path id="path530" d="M 498.5,698 C 440.9,698 394,652.5 394,596.5 394,540.5 440.9,495 498.5,495 556.1,495 603,540.5 603,596.5 603,652.5 556.1,698 498.5,698 Z" class="st27" style="fill:url(#SVGID_18_)"/><g id="g534"><path id="path532" d="m 498.5,495.5 c 57.3,0 104,45.3 104,101 0,55.7 -46.7,101 -104,101 -57.3,0 -104,-45.3 -104,-101 0,-55.7 46.7,-101 104,-101 m 0,-1 c -58,0 -105,45.7 -105,102 0,56.3 47,102 105,102 58,0 105,-45.7 105,-102 0,-56.3 -47,-102 -105,-102 z"/></g></g><g id="g551"><radialGradient id="SVGID_19_" cx="818" cy="599.871" r="98.575" gradientUnits="userSpaceOnUse"><stop style="stop-color:#fff" id="stop538" offset="0"/><stop style="stop-color:#fdfdfd" id="stop540" offset=".446"/><stop style="stop-color:#e6e6e6" id="stop542" offset="1"/></radialGradient><path id="path545" d="m 818,697 c -55.1,0 -100,-43.6 -100,-97.1 0,-53.6 44.9,-97.1 100,-97.1 55.1,0 100,43.6 100,97.1 0,53.5 -44.9,97.1 -100,97.1 z" class="st28" style="fill:url(#SVGID_19_)"/><g id="g549"><path id="path547" d="m 818,503.2 c 54.9,0 99.5,43.3 99.5,96.6 0,53.3 -44.6,96.6 -99.5,96.6 -54.9,0 -99.5,-43.3 -99.5,-96.6 0,-53.3 44.6,-96.6 99.5,-96.6 m 0,-1 c -55.5,0 -100.5,43.7 -100.5,97.6 0,53.9 45,97.6 100.5,97.6 55.5,0 100.5,-43.7 100.5,-97.6 0,-53.8 -45,-97.6 -100.5,-97.6 z"/></g></g><ellipse id="ellipse553" cx="498.5" cy="572" class="st29" rx="20.5" ry="14" transform="matrix(0.08600707,-0.9963,0.9963,0.08600707,-114.255,1019.4568)" style="stroke:#000;stroke-miterlimit:10"/><ellipse id="ellipse555" cx="821" cy="591" class="st29" rx="13.5" ry="20.5" transform="matrix(0.9956,-0.093515,0.093515,0.9956,-51.6696,79.3657)" style="stroke:#000;stroke-miterlimit:10"/><g id="g559"><path id="path557" d="m 631.6,538.3 c 101.9,12.7 346.1,10.9 374,-10 27.9,-20.8 -186.5,-133.9 -314.4,-147.5 -127.9,-13.6 -359.1,48.6 -375.9,57 -47.1,23.6 214.4,87.9 316.3,100.5 z" class="st30" style="fill:#d1b482"/></g><g id="g568"><linearGradient id="SVGID_20_" x1="652.884" x2="579.884" y1="501.327" y2="738.327" gradientUnits="userSpaceOnUse"><stop style="stop-color:#d1b482" id="stop561" offset="0"/><stop style="stop-color:#a68b65" id="stop563" offset=".625"/></linearGradient><path id="path566" d="m 631.6,538.3 c 101.9,12.7 346.1,10.9 374,-10 C 736,566 367,502 315.3,437.9 c -47.1,23.5 214.4,87.8 316.3,100.4 z" class="st31" style="fill:url(#SVGID_20_)"/></g><path id="path570" d="m 522.2,402.7 c -1.5,7.8 5.2,14.6 11.7,19.1 13.5,9.4 29,16 45.2,19.1" class="st32" style="fill:none;stroke:#000;stroke-linecap:round;stroke-linejoin:round;stroke-miterlimit:10"/><path id="path572" d="m 521.6,404.3 c 45.3,-92.8 92.7,-184.5 142.2,-275.1 6.9,-12.7 14.3,-25.8 25.9,-34.3 9.2,-6.7 20.3,-10.1 31.3,-12.9 15.8,-4.1 31.8,-7.3 48,-9.6 9.8,-1.4 20.2,-2.4 29,2 6.9,3.4 11.9,9.8 16.5,16 13.2,17.8 25.4,36.3 36.5,55.5 8.9,15.4 17.9,32.2 33.6,40.7 15.7,8.5 40,3.1 43.9,-14.3 0.5,21.6 -10,43.2 -27.2,56.3 -17.2,13.1 -40.9,17.3 -61.6,10.9 -4.8,-1.5 -10.2,-3.4 -14.6,-0.9 -4,2.3 -5.3,7.4 -6.2,11.9 -12.3,65 -9.7,132.7 7.5,196.6" class="st33" style="fill:#d1b482;stroke:#000;stroke-linecap:round;stroke-linejoin:round;stroke-miterlimit:10"/><g id="g588"><linearGradient id="SVGID_21_" x1="779.954" x2="1232.931" y1="84.214" y2="270.205" gradientUnits="userSpaceOnUse"><stop style="stop-color:#d1b482" id="stop574" offset="0"/><stop style="stop-color:#a68b65" id="stop576" offset=".625"/></linearGradient><path id="path579" d="m 799.2,93.1 c -0.1,-0.7 -0.2,-1.3 -0.2,-2 0,0.6 0.1,1.3 0.2,2 z" class="st34" style="fill:url(#SVGID_21_)"/><linearGradient id="SVGID_22_" x1="687.637" x2="1140.614" y1="309.05" y2="495.041" gradientUnits="userSpaceOnUse"><stop style="stop-color:#d1b482" id="stop581" offset="0"/><stop style="stop-color:#a68b65" id="stop583" offset=".625"/></linearGradient><path id="path586" d="m 819,414.2 c -10.1,-53.9 -10.2,-109.7 0,-163.6 0.9,-4.5 2.2,-9.6 6.2,-11.9 4.4,-2.5 9.8,-0.5 14.6,0.9 9.2,2.8 18.9,3.5 28.5,2.3 -2.3,-7.8 -5,-15.6 -7.6,-23.3 -7.3,-21.4 -12.8,-40.6 -23.9,-60.4 -6.5,-11.6 -13,-23.1 -19.5,-34.7 -3.9,-6.9 -16.2,-21.7 -18,-30.5 2.7,23.1 5.3,46.3 3.1,69.4 -2.3,23.8 -10.2,47.7 -26.4,65.3 -7.3,8 -17,17.5 -13.2,27.6 1.5,3.9 4.8,6.8 7.3,10.1 15.8,20.8 -1.5,53.1 10.7,76.2 3.2,6 8.3,12.2 6.3,18.6 -1.7,5.1 -7.3,7.7 -12.3,9.7 -19,7.4 -38.1,14.8 -57.1,22.2 12.4,15.2 39.3,10.6 51.9,25.7 1.9,2.3 3.5,5.2 3.2,8.2 -0.6,7.1 -9.4,9.7 -16.5,10.6 -31.4,4 -62.8,7.9 -94.2,11.9 3.7,7.3 7.5,14.7 11.2,22 -59.7,24.8 -127,18.8 -191.3,12.5 50.2,28.1 105.3,45 161.9,56.7 108,11.1 334.9,8.7 361.7,-11.3 19.5,-14.7 -80.8,-75 -186.6,-114.2 z" class="st35" style="fill:url(#SVGID_22_)"/></g><path id="path590" d="m 818.4,253.1 c 7.3,-30 7.6,-61.8 0.8,-91.9" class="st32" style="fill:none;stroke:#000;stroke-linecap:round;stroke-linejoin:round;stroke-miterlimit:10"/><g id="g594"><path id="path592" d="m 529.5,389.5 c -105.8,15.2 -203.2,42.9 -214.2,48.4 -47.1,23.5 214.4,87.8 316.3,100.4 101.9,12.6 346.1,10.9 374,-10 19.8,-14.8 -80.2,-74.7 -187,-113.9" class="st17" style="fill:none;stroke:#000;stroke-miterlimit:10"/></g><path id="path596" d="m 521.6,404.3 c 45.3,-92.8 92.7,-184.5 142.2,-275.1 6.9,-12.7 14.3,-25.8 25.9,-34.3 9.2,-6.7 20.3,-10.1 31.3,-12.9 15.8,-4.1 31.8,-7.3 48,-9.6 9.8,-1.4 20.2,-2.4 29,2 6.9,3.4 11.9,9.8 16.5,16 13.2,17.8 25.4,36.3 36.5,55.5 8.9,15.4 17.9,32.2 33.6,40.7 15.7,8.5 40,3.1 43.9,-14.3 0.5,21.6 -10,43.2 -27.2,56.3 -17.2,13.1 -40.9,17.3 -61.6,10.9 -4.8,-1.5 -10.2,-3.4 -14.6,-0.9 -4,2.3 -5.3,7.4 -6.2,11.9 -12.3,65 -9.7,132.7 7.5,196.6" class="st32" style="fill:none;stroke:#000;stroke-linecap:round;stroke-linejoin:round;stroke-miterlimit:10"/></g><text style="font-style:normal;font-variant:normal;font-weight:700;font-stretch:normal;font-size:392.40863037px;line-height:1.25;font-family:Almendra;-inkscape-font-specification:'Almendra, Bold';font-variant-ligatures:normal;font-variant-caps:normal;font-variant-numeric:normal;font-feature-settings:normal;text-align:start;letter-spacing:0;word-spacing:0;writing-mode:lr-tb;text-anchor:start;fill:#000;fill-opacity:1;stroke:none;stroke-width:9.8102169" id="text4302" x="1.57" y="1364.191" xml:space="preserve"><tspan id="tspan4300" x="1.57" y="1364.191" style="stroke-width:9.8102169">Mage</tspan></text></svg>